HIERARCHY
ROOT hip
{
  OFFSET 0 0 0
  CHANNELS 6 Xposition Yposition Zposition Zrotation Yrotation Xrotation
  JOINT abdomen
  {
    OFFSET 0 20.6881 -0.73152
    CHANNELS 3 Zrotation Xrotation Yrotation
    JOINT chest
    {
      OFFSET 0 11.7043 -0.48768
      CHANNELS 3 Zrotation Xrotation Yrotation
      JOINT neck
      {
        OFFSET 0 22.1894 -2.19456
        CHANNELS 3 Zrotation Xrotation Yrotation
        JOINT head
        {
          OFFSET -0.24384 7.07133 1.2192
          CHANNELS 3 Zrotation Xrotation Yrotation
          JOINT leftEye
          {
            OFFSET 4.14528 8.04674 8.04672
            CHANNELS 3 Zrotation Xrotation Yrotation
            End Site
            {
              OFFSET 1 0 0
            }
          }
          JOINT rightEye
          {
            OFFSET -3.6576 8.04674 8.04672
            CHANNELS 3 Zrotation Xrotation Yrotation
            End Site
            {
              OFFSET 1 0 0
            }
          }
        }
      }
      JOINT rCollar
      {
        OFFSET -2.68224 19.2634 -4.8768
        CHANNELS 3 Zrotation Xrotation Yrotation
        JOINT rShldr
        {
          OFFSET -8.77824 -1.95073 1.46304
          CHANNELS 3 Zrotation Xrotation Yrotation
          JOINT rForeArm
          {
            OFFSET -28.1742 -1.7115 0.48768
            CHANNELS 3 Zrotation Xrotation Yrotation
            JOINT rHand
            {
              OFFSET -22.5879 0.773209 7.07136
              CHANNELS 3 Zrotation Xrotation Yrotation
              JOINT rThumb1
              {
                OFFSET -1.2192 -0.487915 3.41376
                CHANNELS 3 Zrotation Xrotation Yrotation
                JOINT rThumb2
                {
                  OFFSET -3.37035 -0.52449 3.41376
                  CHANNELS 3 Zrotation Xrotation Yrotation
                  End Site
                  {
                    OFFSET -1.78271 -1.18214 1.43049
                  }
                }
              }
              JOINT rIndex1
              {
                OFFSET -7.75947 0.938293 5.60832
                CHANNELS 3 Zrotation Xrotation Yrotation
                JOINT rIndex2
                {
                  OFFSET -2.54057 -0.884171 1.56538
                  CHANNELS 3 Zrotation Xrotation Yrotation
                  End Site
                  {
                    OFFSET -1.62519 -0.234802 1.16502
                  }
                }
              }
              JOINT rMid1
              {
                OFFSET -8.24714 1.18213 3.41376
                CHANNELS 3 Zrotation Xrotation Yrotation
                JOINT rMid2
                {
                  OFFSET -3.10165 -0.590103 1.0647
                  CHANNELS 3 Zrotation Xrotation Yrotation
                  End Site
                  {
                    OFFSET -2.48547 -0.328903 0.83742
                  }
                }
              }
              JOINT rRing1
              {
                OFFSET -8.82822 0.546677 1.51678
                CHANNELS 3 Zrotation Xrotation Yrotation
                JOINT rRing2
                {
                  OFFSET -2.60934 -0.819778 -0.0198488
                  CHANNELS 3 Zrotation Xrotation Yrotation
                  End Site
                  {
                    OFFSET -2.33842 -0.294052 0.168128
                  }
                }
              }
              JOINT rPinky1
              {
                OFFSET -8.27202 -0.0477905 -0.4584
                CHANNELS 3 Zrotation Xrotation Yrotation
                JOINT rPinky2
                {
                  OFFSET -1.82734 -0.647385 -0.700984
                  CHANNELS 3 Zrotation Xrotation Yrotation
                  End Site
                  {
                    OFFSET -1.69225 -0.51767 -0.607171
                  }
                }
              }
            }
          }
        }
      }
      JOINT lCollar
      {
        OFFSET 2.68224 19.2634 -4.8768
        CHANNELS 3 Zrotation Xrotation Yrotation
        JOINT lShldr
        {
          OFFSET 8.77824 -1.95073 1.46304
          CHANNELS 3 Zrotation Xrotation Yrotation
          JOINT lForeArm
          {
            OFFSET 28.1742 -1.7115 0.48768
            CHANNELS 3 Zrotation Xrotation Yrotation
            JOINT lHand
            {
              OFFSET 22.5879 0.773209 7.07136
              CHANNELS 3 Zrotation Xrotation Yrotation
              JOINT lThumb1
              {
                OFFSET 1.2192 -0.487915 3.41376
                CHANNELS 3 Zrotation Xrotation Yrotation
                JOINT lThumb2
                {
                  OFFSET 3.37035 -0.52449 3.41376
                  CHANNELS 3 Zrotation Xrotation Yrotation
                  End Site
                  {
                    OFFSET 1.78271 -1.18214 1.43049
                  }
                }
              }
              JOINT lIndex1
              {
                OFFSET 7.75947 0.938293 5.60832
                CHANNELS 3 Zrotation Xrotation Yrotation
                JOINT lIndex2
                {
                  OFFSET 2.54057 -0.884171 1.56538
                  CHANNELS 3 Zrotation Xrotation Yrotation
                  End Site
                  {
                    OFFSET 1.62519 -0.234802 1.16502
                  }
                }
              }
              JOINT lMid1
              {
                OFFSET 8.24714 1.18213 3.41376
                CHANNELS 3 Zrotation Xrotation Yrotation
                JOINT lMid2
                {
                  OFFSET 3.10165 -0.590103 1.0647
                  CHANNELS 3 Zrotation Xrotation Yrotation
                  End Site
                  {
                    OFFSET 2.48547 -0.328903 0.83742
                  }
                }
              }
              JOINT lRing1
              {
                OFFSET 8.82822 0.546677 1.51678
                CHANNELS 3 Zrotation Xrotation Yrotation
                JOINT lRing2
                {
                  OFFSET 2.60934 -0.819778 -0.0198488
                  CHANNELS 3 Zrotation Xrotation Yrotation
                  End Site
                  {
                    OFFSET 2.33842 -0.294052 0.168128
                  }
                }
              }
              JOINT lPinky1
              {
                OFFSET 8.27202 -0.0477905 -0.4584
                CHANNELS 3 Zrotation Xrotation Yrotation
                JOINT lPinky2
                {
                  OFFSET 1.82734 -0.647385 -0.700984
                  CHANNELS 3 Zrotation Xrotation Yrotation
                  End Site
                  {
                    OFFSET 1.69225 -0.51767 -0.607171
                  }
                }
              }
            }
          }
        }
      }
    }
  }
  JOINT rButtock
  {
    OFFSET -8.77824 4.35084 1.2192
    CHANNELS 3 Zrotation Xrotation Yrotation
    JOINT rThigh
    {
      OFFSET 0 -1.70687 -2.19456
      CHANNELS 3 Zrotation Xrotation Yrotation
      JOINT rShin
      {
        OFFSET 0 -36.8199 0.73152
        CHANNELS 3 Zrotation Xrotation Yrotation
        JOINT rFoot
        {
          OFFSET 0.73152 -45.1104 -5.12064
          CHANNELS 3 Zrotation Xrotation Yrotation
          End Site
          {
            OFFSET -1.1221 -3.69964 12.103
          }
        }
      }
    }
  }
  JOINT lButtock
  {
    OFFSET 8.77824 4.35084 1.2192
    CHANNELS 3 Zrotation Xrotation Yrotation
    JOINT lThigh
    {
      OFFSET 0 -1.70687 -2.19456
      CHANNELS 3 Zrotation Xrotation Yrotation
      JOINT lShin
      {
        OFFSET 0 -36.8199 0.73152
        CHANNELS 3 Zrotation Xrotation Yrotation
        JOINT lFoot
        {
          OFFSET -0.73152 -45.1104 -5.12064
          CHANNELS 3 Zrotation Xrotation Yrotation
          End Site
          {
            OFFSET 1.1221 -3.69964 12.103
          }
        }
      }
    }
  }
}
MOTION
Frames:	4
Frame Time:	0.00833333
2.2278 83.4843 45.8708 -5.7747 14.0677 16.4924 3.3497 2.89996 -8.58986 8.67994 0.371502 -2.40674 -8.17055 12.3757 -7.12069 15.7322 -5.8627 -12.3456 -0.0 0.0 0.0 -0.0 0.0 0.0 -2.79177e-14 8.90555e-14 5.61219e-13 -38.6141 34.6901 99.8834 -18.3977 -11.1207 34.9187 -0.000206636 0.410466 0.0576882 2.06638e-09 2.23777e-09 -5.43729e-10 3.57321e-09 3.87503e-09 -9.46936e-10 2.06639e-09 2.23779e-09 -5.43754e-10 7.73091 5.47488 0.417314 2.06637e-09 2.23778e-09 -5.43735e-10 2.90554 0.965183 0.102902 2.06638e-09 2.23778e-09 -5.43728e-10 10.2786 0.731801 0.0259123 2.06638e-09 2.23778e-09 -5.43716e-10 2.22167 -0.733487 -0.20892 -2.80917e-14 8.90546e-14 5.60871e-13 31.1414 28.9873 -91.3556 21.2699 -14.6979 -41.8597 0.455623 -18.8307 2.74712 -1.00847e-09 1.40577e-09 4.06042e-10 -1.75733e-09 2.40738e-09 6.78575e-10 -1.00848e-09 1.40576e-09 4.06049e-10 -7.73091 5.47488 -0.417314 -1.00848e-09 1.40576e-09 4.06046e-10 -2.90554 0.965183 -0.102902 -1.00848e-09 1.40576e-09 4.06036e-10 -10.2786 0.731801 -0.0259123 -1.00847e-09 1.40576e-09 4.0603e-10 -2.22167 -0.733487 0.20892 -2.03217e-16 0.0 -3.88251e-19 -3.02634 -11.9436 28.8962 0.039013 -1.19295 0.291313 -16.7134 -12.535 -43.7733 2.03217e-16 0.0 3.88251e-19 5.00727 -23.6665 -3.68381 -0.0530315 10.1975 -0.387234 0.532506 -8.96182 4.89169
2.27237 83.4852 45.8257 -5.6048 13.9202 16.6452 3.65352 2.97279 -8.84075 8.48115 0.388255 -2.47292 -8.13863 12.3285 -7.104 15.7077 -6.04738 -12.2899 -0.0 0.0 0.0 -0.0 0.0 0.0 4.71054e-14 1.52295e-13 4.19023e-13 -38.568 34.3564 99.7693 -18.4528 -11.1818 35.0441 -0.000461638 0.376333 0.0528978 1.50091e-09 1.68327e-09 -4.38287e-10 2.59504e-09 2.91458e-09 -7.63014e-10 1.50092e-09 1.68329e-09 -4.38311e-10 7.73091 5.47488 0.417314 1.50091e-09 1.68328e-09 -4.38295e-10 2.90554 0.965183 0.102902 1.50092e-09 1.68328e-09 -4.38288e-10 10.2786 0.731801 0.0259123 1.50091e-09 1.68328e-09 -4.38276e-10 2.22167 -0.733487 -0.20892 4.69461e-14 1.52292e-13 4.18681e-13 29.5197 28.6663 -91.6722 20.6804 -13.8985 -40.3445 0.429372 -18.3045 2.66475 -6.06404e-10 1.94278e-09 7.79506e-10 -1.06857e-09 3.35372e-09 1.33122e-09 -6.06412e-10 1.94278e-09 7.7951e-10 -7.73091 5.47488 -0.417314 -6.06406e-10 1.94277e-09 7.79507e-10 -2.90554 0.965183 -0.102902 -6.06414e-10 1.94277e-09 7.79499e-10 -10.2786 0.731801 -0.0259123 -6.06398e-10 1.94278e-09 7.79493e-10 -2.22167 -0.733487 0.20892 -2.03217e-16 0.0 -3.88251e-19 -3.20233 -12.0699 29.0452 0.0394453 -1.17657 0.29444 -16.7625 -12.5368 -43.8397 2.03217e-16 0.0 3.88251e-19 5.06842 -23.7695 -2.85114 -0.053713 10.2306 -0.389728 0.490412 -8.83355 4.19702
2.30375 83.4849 45.7848 -5.491 13.7295 16.7987 3.87926 3.02153 -9.07489 8.34432 0.466077 -2.53993 -8.1416 12.2559 -7.07688 15.7094 -6.24679 -12.2049 -0.0 0.0 0.0 -0.0 0.0 0.0 1.5132e-13 2.87246e-13 1.3777e-13 -38.8767 33.8648 99.7834 -18.5348 -11.2728 35.233 -0.000829522 0.253077 0.0355861 3.65201e-10 5.92273e-10 -3.13967e-10 6.30657e-10 1.02499e-09 -5.44919e-10 3.65205e-10 5.92287e-10 -3.13985e-10 7.73091 5.47488 0.417314 3.65198e-10 5.92278e-10 -3.13975e-10 2.90554 0.965183 0.102902 3.65208e-10 5.92278e-10 -3.13969e-10 10.2786 0.731801 0.0259123 3.65199e-10 5.92278e-10 -3.13958e-10 2.22167 -0.733487 -0.20892 1.51172e-13 2.87241e-13 1.37457e-13 27.6649 28.4295 -91.9557 20.0504 -13.0874 -38.767 0.404201 -17.7855 2.58392 2.627e-10 2.39861e-09 1.17652e-09 4.27303e-10 4.17496e-09 2.0341e-09 2.62692e-10 2.3986e-09 1.17652e-09 -7.73091 5.47488 -0.417314 2.62698e-10 2.3986e-09 1.17652e-09 -2.90554 0.965183 -0.102902 2.6269e-10 2.3986e-09 1.17651e-09 -10.2786 0.731801 -0.0259123 2.62707e-10 2.39861e-09 1.17651e-09 -2.22167 -0.733487 0.20892 -2.03217e-16 0.0 -3.88251e-19 -3.40255 -12.2265 29.2833 0.0394464 -1.17572 0.296531 -16.8269 -12.5396 -43.9508 2.03217e-16 0.0 3.88251e-19 5.12376 -23.8848 -1.95412 -0.0540572 10.2672 -0.393095 0.452348 -8.71886 3.49289
2.34187 83.482 45.7483 -5.3662 13.4836 16.9537 4.07907 3.05312 -9.30166 8.22401 0.567647 -2.60692 -8.05636 12.192 -7.05155 15.6101 -6.53335 -12.1275 -0.0 0.0 0.0 -0.0 0.0 0.0 2.39998e-13 4.15339e-13 -1.54124e-13 -39.1289 33.3929 99.7339 -18.6417 -11.3927 35.4785 -0.0008977 0.207673 0.0292072 -8.02717e-10 -5.3718e-10 -1.89185e-10 -1.38932e-09 -9.31178e-10 -3.25844e-10 -8.02714e-10 -5.37176e-10 -1.89195e-10 7.73091 5.47488 0.417314 -8.02717e-10 -5.37181e-10 -1.89192e-10 2.90554 0.965183 0.102902 -8.02708e-10 -5.3718e-10 -1.89188e-10 10.2786 0.731801 0.0259123 -8.02719e-10 -5.37178e-10 -1.89177e-10 2.22167 -0.733487 -0.20892 2.39858e-13 4.15331e-13 -1.54401e-13 25.7325 28.2909 -92.2079 19.4081 -12.2954 -37.2274 0.381248 -17.2941 2.50787 1.16361e-09 2.62184e-09 1.47378e-09 1.98025e-09 4.59314e-09 2.56541e-09 1.1636e-09 2.62183e-09 1.47377e-09 -7.73091 5.47488 -0.417314 1.16361e-09 2.62183e-09 1.47377e-09 -2.90554 0.965183 -0.102902 1.1636e-09 2.62183e-09 1.47377e-09 -10.2786 0.731801 -0.0259123 1.16362e-09 2.62183e-09 1.47376e-09 -2.22167 -0.733487 0.20892 -2.03217e-16 0.0 -3.88251e-19 -3.60132 -12.3986 29.5604 0.0392696 -1.18125 0.298393 -16.8946 -12.5436 -44.0731 2.03217e-16 0.0 3.88251e-19 5.19641 -24.0024 -1.02045 -0.0542834 10.3075 -0.396858 0.418315 -8.60923 2.78701
